<?xml version="1.0" encoding="UTF-8"?>
<!DOCTYPE svg PUBLIC "-//W3C//DTD SVG 1.1//EN" "http://www.w3.org/Graphics/SVG/1.1/DTD/svg11.dtd">
<!-- Creator: CorelDRAW 2019 (64-Bit) -->
<svg xmlns="http://www.w3.org/2000/svg" xml:space="preserve" width="357px" height="240px" version="1.1" style="shape-rendering:geometricPrecision; text-rendering:geometricPrecision; image-rendering:optimizeQuality; fill-rule:evenodd; clip-rule:evenodd"
viewBox="0 0 357 240.33"
 xmlns:xlink="http://www.w3.org/1999/xlink"
 xmlns:xodm="http://www.corel.com/coreldraw/odm/2003">
 <defs>
  <style type="text/css">
   <![CDATA[
    .fil0 {fill:#F08519}
    .fil1 {fill:#B6B6B7;fill-rule:nonzero}
   ]]>
  </style>
 </defs>
 <g id="Layer_x0020_1">
  <metadata id="CorelCorpID_0Corel-Layer"/>
  <path class="fil0" d="M71.31 46.57l216.23 -0.5c28.18,-0.06 35.17,20.84 18.36,40.46 31.39,-1.47 43.77,3.11 51.1,21.35 -62.52,4.81 -154.78,43.67 -235.63,79.73 28.96,-31.85 70.61,-61.87 124.96,-90.06l-246.33 1.02 5.3 -3.87 259.56 -2.27 6.15 4.85c-4.22,0.13 -8.45,0.27 -12.67,0.4 -39.37,21.37 -77.06,43.69 -106.44,70.65 67.6,-29.39 125.76,-55.57 193.23,-65.28 -1.55,-12.12 -24.31,-12.38 -50.1,-10.94 15.41,-19.36 19.7,-39.03 -8.13,-39.47l-219.15 -3.48 3.56 -2.59zm144.02 -46.51l0.01 0c25.95,0.08 49.41,10.63 66.38,27.65 5,5.01 9.43,10.59 13.2,16.62 -2.46,-0.36 -4.95,-0.5 -7.39,-0.49l-0.48 0c-2.93,-4.18 -6.21,-8.09 -9.8,-11.69 -13.59,-13.64 -31.66,-22.83 -51.82,-25.2 11.85,9.5 22,21.84 29.34,36.06 0.15,0.3 0.31,0.6 0.46,0.9l-7.1 0.02c-7.6,-14.01 -18.08,-25.98 -30.23,-34.83l0 34.89 -6.31 0.02 0 -34.91c-12.19,8.88 -22.72,20.9 -30.32,34.98l-7.11 0.02c0.19,-0.37 0.37,-0.73 0.56,-1.09 7.3,-14.17 17.41,-26.47 29.21,-35.96 -19.9,2.5 -37.77,11.63 -51.29,25.11 -3.71,3.69 -7.09,7.71 -10.1,12.01l-7.57 0.02c3.79,-5.99 8.23,-11.52 13.23,-16.5 16.96,-16.89 40.27,-27.41 65.99,-27.64 0.38,-0.07 0.77,-0.07 1.14,0.01zm90.39 119.4c-2.05,7.41 -4.99,14.45 -8.68,21.01 0.05,0.23 0.08,0.47 0.08,0.71 0,1.45 -0.98,2.67 -2.31,3.04 -3.85,6.17 -8.4,11.86 -13.52,16.96 -16.95,16.89 -40.23,27.41 -65.94,27.65 -0.41,0.08 -0.84,0.08 -1.25,-0.01 -19.57,-0.07 -37.72,-6.1 -52.74,-16.35 2.32,-1 4.63,-2 6.95,-2.99 10.6,6.55 22.71,10.91 35.69,12.44 -6.95,-5.56 -13.35,-12.13 -18.94,-19.53 2,-0.84 4.01,-1.67 6.01,-2.5 6.02,7.71 12.97,14.42 20.52,19.89l0 -28.23c2.1,-0.84 4.2,-1.67 6.31,-2.5l0 30.73c11.53,-8.36 21.67,-19.62 29.22,-32.92 0.47,-0.83 0.93,-1.67 1.39,-2.52l-18.41 0c5.65,-2.15 11.32,-4.26 17,-6.32l4.51 0c0.28,-0.63 0.56,-1.27 0.84,-1.91 2.62,-0.93 5.24,-1.84 7.87,-2.75 -0.58,1.57 -1.2,3.13 -1.85,4.66l32.72 0c3.01,-5.23 5.49,-10.8 7.39,-16.63 2.37,-0.66 4.76,-1.31 7.14,-1.93zm-159.05 40.59c-4.97,-5.15 -9.35,-10.86 -13.04,-17.04 -0.1,-0.13 -0.19,-0.28 -0.27,-0.44 -7.4,-12.51 -11.97,-26.89 -12.87,-42.26l6.3 -0.03c0.85,13.66 4.82,26.48 11.21,37.74l33.01 0c-4.91,-11.64 -8,-24.41 -8.7,-37.89l6.3 -0.02c0.7,12.93 3.75,25.18 8.56,36.32 -1.39,0.98 -2.77,1.97 -4.15,2.96 -2.26,1.63 -4.5,3.27 -6.73,4.95l-24.34 0c2.85,4.15 6.04,8.05 9.54,11.65 -1.62,1.34 -3.22,2.69 -4.82,4.06zm130.18 -3.33c3.81,-3.8 7.28,-7.94 10.36,-12.38l-31.63 0c-0.95,1.91 -1.94,3.79 -2.99,5.63 -7.11,12.54 -16.41,23.37 -26.98,31.85 19.89,-2.51 37.73,-11.63 51.24,-25.1zm-65.26 -42.49l0 -14.3 6.31 -0.03 0 10.64c-2.11,1.22 -4.22,2.45 -6.31,3.69zm-193.62 -28.76l3.77 -2.76 226.69 -3.2 8.5 6.69 -238.96 -0.73zm16.22 -11.83l4.33 -3.17 196.26 -1.71 7.93 6.24 -208.52 -1.36zm16.11 -11.75l3.91 -2.85 164.66 -2.8 10.41 8.19 -178.98 -2.54z"/>
  <path class="fil1" d="M28.76 215.61l12.5 0c2.72,0 4.76,0.64 6.12,1.94 1.35,1.3 2.03,3.14 2.03,5.53 0,2.46 -0.74,4.38 -2.22,5.77 -1.48,1.38 -3.74,2.07 -6.77,2.07l-4.12 0 0 9 -7.54 0 0 -24.31zm7.54 10.39l1.85 0c1.46,0 2.48,-0.26 3.07,-0.76 0.59,-0.5 0.89,-1.15 0.89,-1.93 0,-0.77 -0.26,-1.41 -0.77,-1.95 -0.51,-0.53 -1.48,-0.79 -2.89,-0.79l-2.15 0 0 5.43zm16.07 1.78c0,-3.97 1.1,-7.06 3.31,-9.26 2.22,-2.22 5.29,-3.32 9.25,-3.32 4.04,0 7.16,1.09 9.35,3.25 2.19,2.18 3.28,5.22 3.28,9.13 0,2.85 -0.47,5.17 -1.43,6.99 -0.95,1.81 -2.34,3.23 -4.15,4.24 -1.81,1.02 -4.06,1.52 -6.76,1.52 -2.74,0 -5.01,-0.44 -6.81,-1.31 -1.79,-0.88 -3.25,-2.26 -4.37,-4.15 -1.11,-1.88 -1.67,-4.25 -1.67,-7.09zm7.5 0.02c0,2.45 0.46,4.21 1.37,5.29 0.92,1.06 2.16,1.6 3.74,1.6 1.61,0 2.87,-0.52 3.75,-1.57 0.89,-1.05 1.33,-2.93 1.33,-5.66 0,-2.28 -0.47,-3.95 -1.39,-5 -0.93,-1.06 -2.18,-1.59 -3.76,-1.59 -1.52,0 -2.74,0.54 -3.66,1.61 -0.92,1.07 -1.38,2.85 -1.38,5.32zm20.44 4.08l7.13 -0.45c0.16,1.16 0.47,2.04 0.95,2.64 0.77,0.98 1.88,1.47 3.32,1.47 1.07,0 1.89,-0.25 2.47,-0.75 0.58,-0.51 0.87,-1.09 0.87,-1.75 0,-0.63 -0.27,-1.19 -0.82,-1.69 -0.55,-0.5 -1.83,-0.97 -3.84,-1.41 -3.29,-0.74 -5.63,-1.72 -7.04,-2.95 -1.41,-1.22 -2.12,-2.78 -2.12,-4.69 0,-1.24 0.36,-2.42 1.09,-3.53 0.72,-1.11 1.81,-1.99 3.26,-2.62 1.46,-0.63 3.45,-0.95 5.98,-0.95 3.11,0 5.47,0.58 7.1,1.74 1.63,1.15 2.6,2.99 2.91,5.52l-7.06 0.41c-0.19,-1.1 -0.59,-1.9 -1.18,-2.4 -0.61,-0.5 -1.44,-0.75 -2.5,-0.75 -0.87,0 -1.53,0.18 -1.98,0.55 -0.44,0.37 -0.66,0.82 -0.66,1.35 0,0.39 0.18,0.73 0.54,1.05 0.34,0.32 1.18,0.61 2.51,0.89 3.28,0.71 5.63,1.43 7.04,2.15 1.42,0.72 2.46,1.62 3.1,2.69 0.65,1.07 0.97,2.27 0.97,3.6 0,1.56 -0.43,3 -1.29,4.32 -0.86,1.31 -2.06,2.31 -3.62,2.99 -1.54,0.68 -3.49,1.02 -5.84,1.02 -4.13,0 -7,-0.8 -8.59,-2.39 -1.59,-1.59 -2.49,-3.61 -2.7,-6.06zm37.45 -16.27l7.54 0 0 24.31 -7.54 0 0 -24.31zm12.97 0l7.02 0 9.11 13.42 0 -13.42 7.1 0 0 24.31 -7.1 0 -9.06 -13.35 0 13.35 -7.07 0 0 -24.31zm28.32 0l11.17 0c2.2,0 3.98,0.3 5.33,0.89 1.35,0.6 2.48,1.46 3.36,2.57 0.89,1.12 1.53,2.42 1.92,3.9 0.4,1.48 0.6,3.05 0.6,4.71 0,2.6 -0.29,4.61 -0.89,6.04 -0.58,1.44 -1.4,2.64 -2.46,3.6 -1.05,0.97 -2.18,1.62 -3.38,1.94 -1.65,0.44 -3.14,0.66 -4.48,0.66l-11.17 0 0 -24.31zm7.51 5.5l0 13.28 1.84 0c1.58,0 2.7,-0.18 3.37,-0.52 0.66,-0.35 1.18,-0.96 1.56,-1.83 0.38,-0.87 0.56,-2.27 0.56,-4.22 0,-2.57 -0.41,-4.33 -1.26,-5.28 -0.84,-0.96 -2.24,-1.43 -4.19,-1.43l-1.88 0zm17.85 6.67c0,-3.97 1.11,-7.06 3.32,-9.26 2.22,-2.22 5.29,-3.32 9.24,-3.32 4.05,0 7.17,1.09 9.36,3.25 2.19,2.18 3.28,5.22 3.28,9.13 0,2.85 -0.47,5.17 -1.43,6.99 -0.96,1.81 -2.34,3.23 -4.15,4.24 -1.81,1.02 -4.06,1.52 -6.76,1.52 -2.74,0 -5.01,-0.44 -6.81,-1.31 -1.79,-0.88 -3.25,-2.26 -4.37,-4.15 -1.11,-1.88 -1.68,-4.25 -1.68,-7.09zm7.51 0.02c0,2.45 0.46,4.21 1.37,5.29 0.92,1.06 2.16,1.6 3.73,1.6 1.62,0 2.87,-0.52 3.76,-1.57 0.89,-1.05 1.33,-2.93 1.33,-5.66 0,-2.28 -0.47,-3.95 -1.39,-5 -0.93,-1.06 -2.18,-1.59 -3.76,-1.59 -1.52,0 -2.74,0.54 -3.66,1.61 -0.92,1.07 -1.38,2.85 -1.38,5.32zm21.8 -12.19l7.01 0 9.12 13.42 0 -13.42 7.1 0 0 24.31 -7.1 0 -9.07 -13.35 0 13.35 -7.06 0 0 -24.31zm28.22 0l20.1 0 0 5.19 -12.56 0 0 3.87 11.64 0 0 4.96 -11.64 0 0 4.79 12.94 0 0 5.5 -20.48 0 0 -24.31zm23.23 16.27l7.13 -0.45c0.16,1.16 0.47,2.04 0.95,2.64 0.77,0.98 1.88,1.47 3.31,1.47 1.07,0 1.9,-0.25 2.48,-0.75 0.58,-0.51 0.87,-1.09 0.87,-1.75 0,-0.63 -0.27,-1.19 -0.82,-1.69 -0.55,-0.5 -1.83,-0.97 -3.84,-1.41 -3.29,-0.74 -5.64,-1.72 -7.04,-2.95 -1.41,-1.22 -2.12,-2.78 -2.12,-4.69 0,-1.24 0.36,-2.42 1.08,-3.53 0.73,-1.11 1.82,-1.99 3.27,-2.62 1.45,-0.63 3.45,-0.95 5.98,-0.95 3.1,0 5.47,0.58 7.1,1.74 1.63,1.15 2.6,2.99 2.91,5.52l-7.06 0.41c-0.19,-1.1 -0.59,-1.9 -1.19,-2.4 -0.6,-0.5 -1.43,-0.75 -2.49,-0.75 -0.88,0 -1.54,0.18 -1.98,0.55 -0.44,0.37 -0.66,0.82 -0.66,1.35 0,0.39 0.18,0.73 0.54,1.05 0.34,0.32 1.18,0.61 2.5,0.89 3.29,0.71 5.64,1.43 7.05,2.15 1.42,0.72 2.46,1.62 3.1,2.69 0.65,1.07 0.97,2.27 0.97,3.6 0,1.56 -0.43,3 -1.29,4.32 -0.87,1.31 -2.07,2.31 -3.62,2.99 -1.54,0.68 -3.49,1.02 -5.84,1.02 -4.13,0 -7,-0.8 -8.59,-2.39 -1.59,-1.59 -2.49,-3.61 -2.7,-6.06zm26.12 -16.27l7.54 0 0 24.31 -7.54 0 0 -24.31zm27.87 20.3l-8.51 0 -1.23 4.01 -7.66 0 9.15 -24.31 8.22 0 9.11 24.31 -7.87 0 -1.21 -4.01zm-1.59 -5.26l-2.66 -8.74 -2.66 8.74 5.32 0z"/>
  <path class="fil0" d="M332.96 92.36c1.75,0.13 3.12,1.65 3.06,3.38 -0.05,1.74 -1.52,3.03 -3.27,2.89 -1.74,-0.13 -3.12,-1.65 -3.06,-3.38 0.06,-1.74 1.52,-3.03 3.27,-2.89z"/>
 </g>
</svg>
