<?xml version="1.0" encoding="UTF-8"?>
<!DOCTYPE svg PUBLIC "-//W3C//DTD SVG 1.1//EN" "http://www.w3.org/Graphics/SVG/1.1/DTD/svg11.dtd">
<!-- Creator: CorelDRAW X5 -->
<svg xmlns="http://www.w3.org/2000/svg" xml:space="preserve" width="168.602mm" height="91.44mm" style="shape-rendering:geometricPrecision; text-rendering:geometricPrecision; image-rendering:optimizeQuality; fill-rule:evenodd; clip-rule:evenodd"
viewBox="0 0 16860 9144"
 xmlns:xlink="http://www.w3.org/1999/xlink">
 <defs>
  <style type="text/css">
   <![CDATA[
    .fil1 {fill:#1A1A1A}
    .fil0 {fill:#CBB778}
   ]]>
  </style>
 </defs>
 <g id="Layer_x0020_1">
  <metadata id="CorelCorpID_0Corel-Layer"/>
  <path class="fil0" d="M5169 3263l2026 0 707 -1057 1839 0c253,0 2145,-449 2096,-1616 -26,-622 -519,-590 -519,-590l-1940 0 -2026 0 -590 882 2667 0c129,0 235,46 235,175 0,227 -588,295 -769,295l-2447 0 -1278 1911z"/>
  <path class="fil1" d="M0 3263l2026 0 751 -1057 454 1057 2069 0 -496 -1145c1150,-218 2086,-909 2086,-1528 0,-622 -604,-590 -604,-590l-1940 0 -2026 0 -2319 3263zm3383 -1909l335 -472 0 0 974 0c0,0 317,-14 311,96 -6,110 -601,342 -601,342 0,0 -720,35 -1020,35z"/>
  <polygon class="fil1" points="16860,0 14688,0 13791,654 13370,0 11344,0 12308,1735 10209,3263 12374,3263 13015,2781 13025,2794 13307,3263 15471,3263 14528,1799 "/>
  <path class="fil1" d="M5335 3745c7,32 10,70 10,112 0,39 -2,80 -7,123 -4,43 -11,87 -19,133 -9,46 -19,90 -31,133 -12,43 -25,84 -40,123l0 0c-15,39 -30,73 -47,102 -17,30 -35,54 -53,75l0 0c-19,21 -39,36 -60,46 -21,11 -44,16 -67,16 -26,0 -49,-6 -69,-18 -20,-12 -38,-30 -52,-54l0 0c-14,-23 -25,-50 -32,-82 -7,-31 -10,-67 -10,-106 0,-35 2,-73 6,-112 4,-39 9,-79 17,-120 8,-42 17,-84 27,-125 11,-41 23,-82 37,-122 16,-47 33,-88 50,-123 17,-35 36,-64 54,-86 19,-23 40,-40 62,-52 22,-12 46,-18 71,-18 27,0 51,6 72,18 21,12 38,29 52,52l0 0c14,22 24,50 31,83zm185 355c7,-44 11,-88 11,-132 0,-127 -31,-229 -94,-307 -31,-39 -67,-68 -108,-87 -41,-19 -86,-29 -136,-29 -32,0 -64,4 -94,11 -31,8 -61,19 -90,34 -29,15 -57,34 -84,56 -27,22 -52,48 -76,77l0 0c-28,34 -52,71 -74,110 -22,40 -41,82 -57,128 -16,45 -28,90 -36,135 -8,45 -12,89 -12,133 0,65 8,123 24,175 16,52 39,97 70,136 31,39 67,68 107,88 40,19 86,29 137,29 32,0 64,-4 96,-12 32,-8 63,-21 95,-37l0 0c31,-17 61,-37 88,-60 28,-24 53,-50 77,-81l0 0c26,-34 50,-71 71,-110 21,-39 38,-81 53,-125 15,-44 26,-88 33,-132zm185 39l-119 492 156 0 21 -102 0 0c10,-45 19,-84 27,-119 9,-35 17,-65 25,-89 8,-25 17,-48 26,-71 9,-22 19,-43 30,-63l0 0c12,-22 24,-43 37,-61 13,-18 26,-35 40,-49l0 0c14,-14 27,-25 38,-32 13,-8 25,-12 36,-12 7,0 13,1 19,4l0 0c6,3 11,7 15,12l0 0c4,5 7,11 9,18 2,6 3,13 3,21 0,4 -1,9 -2,16 -1,6 -2,13 -4,22l0 0c-2,8 -4,18 -6,28 -3,11 -5,22 -8,32l0 0 -65 238 0 0c-3,10 -5,19 -7,29 -2,10 -4,20 -5,29l0 0c-2,10 -3,19 -4,28 -1,8 -1,16 -1,24 0,20 2,38 7,53 4,15 11,27 20,37l0 0c9,10 19,17 31,22 13,5 28,8 45,8 20,0 39,-5 58,-14 19,-10 39,-24 57,-44 19,-20 38,-45 57,-76 18,-29 35,-62 52,-101l-22 -20c-10,21 -20,40 -29,56 -11,21 -22,39 -33,53 -10,15 -20,26 -29,34 -10,9 -20,14 -29,14 -5,0 -9,-1 -13,-3l0 0c-4,-2 -8,-5 -11,-9 -3,-4 -4,-8 -6,-12l0 0c-1,-4 -2,-9 -2,-14 0,-2 0,-5 0,-8 0,-3 0,-6 1,-8l0 0c0,-3 1,-5 1,-8 1,-3 1,-6 2,-8l0 0 70 -277c4,-15 7,-29 10,-42 3,-13 5,-25 7,-35l0 0c2,-11 3,-20 4,-29 1,-8 1,-16 1,-23 0,-24 -3,-46 -8,-64 -5,-18 -13,-33 -22,-45l0 0c-10,-12 -21,-21 -35,-27 -14,-6 -30,-9 -49,-9 -18,0 -36,4 -54,12 -19,8 -38,20 -57,36l0 0c-19,16 -39,37 -59,62 -20,25 -40,54 -60,87l-34 57 12 -65 33 -184 -254 11 -9 48 43 0c8,0 16,1 22,4 7,3 13,8 18,13l0 0c5,6 8,12 11,20 2,7 3,15 3,24 0,4 0,9 -1,15 -1,6 -1,12 -2,17l0 0c-1,6 -2,13 -4,21 -1,7 -3,15 -6,26l0 0zm943 141c-29,15 -61,26 -96,34l-18 4 3 -18c9,-50 20,-94 32,-133 12,-39 26,-73 41,-101l0 0c15,-29 32,-51 49,-65 18,-16 37,-24 58,-24 11,0 21,2 29,6 9,4 17,10 23,19l0 0c7,8 11,17 15,27 3,10 5,21 5,33 0,30 -6,59 -17,85 -11,27 -27,52 -49,75 -22,23 -47,42 -76,58zm197 224l-22 -29c-15,17 -29,32 -42,45 -17,16 -33,30 -47,40 -15,10 -30,18 -45,24 -15,5 -30,8 -44,8 -18,0 -34,-4 -49,-12 -14,-8 -27,-19 -37,-35 -10,-15 -18,-33 -23,-52 -5,-20 -7,-42 -7,-66 0,-4 0,-9 0,-15 0,-5 1,-10 1,-15 0,-5 1,-10 1,-16 1,-6 1,-12 2,-17l1 -10 10 -1c59,-6 112,-16 157,-30 45,-14 83,-32 113,-55l0 0c30,-22 53,-48 68,-77 15,-29 22,-62 22,-98 0,-25 -4,-47 -13,-67 -8,-20 -21,-37 -37,-52 -17,-15 -36,-27 -58,-34 -22,-8 -48,-12 -76,-12 -22,0 -43,3 -64,7 -21,5 -41,13 -62,23l0 0c-20,10 -40,23 -58,37 -19,15 -36,32 -53,51 -19,21 -35,44 -50,69 -15,25 -27,52 -38,81 -11,29 -19,58 -24,87 -5,29 -8,58 -8,87 0,42 5,80 16,114 11,34 27,64 49,90l0 0c21,26 46,46 74,58 28,13 59,19 93,19 24,0 46,-3 68,-10 22,-6 43,-16 64,-29 21,-13 42,-29 62,-49 19,-18 37,-39 55,-63zm471 127l29 0 67 -96 10 -14 10 14c15,21 32,39 50,54 18,15 37,28 57,38l0 0c20,10 42,18 65,23 23,5 48,8 74,8 98,0 177,-33 237,-99 30,-33 53,-71 68,-115 15,-44 23,-93 23,-147 0,-36 -4,-68 -11,-98 -7,-29 -18,-54 -32,-76l0 0c-14,-22 -35,-43 -62,-64 -28,-21 -62,-42 -103,-63l0 0c-5,-3 -12,-6 -22,-10 -11,-5 -20,-9 -29,-14l0 0c-59,-28 -103,-57 -133,-88 -31,-32 -47,-66 -47,-102 0,-26 4,-51 11,-73 8,-22 19,-42 34,-59 15,-17 33,-31 54,-39 20,-9 43,-13 67,-13 40,0 75,8 105,23 31,15 56,38 77,68 21,30 36,67 47,111 10,41 16,88 18,142l38 6 46 -364 -31 0 -56 74 -9 12 -10 -11c-17,-19 -34,-36 -52,-50 -18,-14 -36,-26 -54,-34 -19,-9 -38,-16 -59,-20 -21,-4 -43,-7 -66,-7 -44,0 -83,8 -118,23l0 0c-35,15 -67,39 -94,70 -28,31 -48,66 -62,105 -14,39 -21,83 -21,130 0,41 4,77 13,110 9,32 22,61 40,86 18,25 42,49 73,71 32,23 70,44 115,63l0 0 11 5c60,26 105,55 136,87 32,34 47,71 47,112 0,29 -4,55 -13,78 -9,23 -22,44 -40,61 -18,17 -39,30 -63,38 -24,8 -51,13 -81,13 -41,0 -77,-8 -110,-25 -32,-17 -61,-42 -84,-75l0 0c-23,-33 -41,-71 -53,-115 -11,-43 -17,-92 -17,-146l-33 -7 -54 398zm1083 -110c18,-29 35,-63 53,-101l-22 -21c-10,21 -20,40 -29,57 -12,21 -22,39 -32,53l0 0c-10,15 -20,26 -29,34 -10,9 -20,14 -29,14 -5,0 -9,-1 -13,-3l0 0c-4,-2 -8,-5 -11,-9l0 0c-3,-4 -4,-8 -6,-12l0 0c-1,-4 -2,-9 -2,-14 0,-3 0,-7 1,-12 0,-4 1,-8 2,-13l0 0c1,-5 2,-10 3,-16 1,-6 3,-13 5,-21l0 0 103 -431 2 -9 10 0 122 0 13 -65 -113 0 -16 0 4 -15 64 -260 -147 0 -71 266 -2 9 -9 0 -104 0 -14 65 94 0 16 0 -4 15 -97 393c-3,13 -5,24 -8,35 -2,10 -4,20 -5,28l0 0c-2,16 -3,32 -3,46 0,20 2,38 7,53 4,15 11,27 20,37l0 0c9,10 19,17 31,22 13,5 28,8 45,8 20,0 39,-5 58,-14l0 0c19,-10 39,-24 57,-44 19,-20 38,-45 57,-76zm473 -538c12,-7 25,-10 38,-10 15,0 29,4 42,12l0 0c12,8 23,19 31,33l0 0c8,14 15,31 19,49 4,18 6,39 6,62 0,21 -1,44 -4,70 -3,26 -7,54 -12,85l0 0c-5,31 -12,61 -19,90 -7,29 -15,56 -23,82l0 0c-8,24 -17,46 -26,64 -9,19 -19,34 -29,47l0 0c-11,13 -22,23 -34,30 -13,7 -26,11 -40,11 -15,0 -30,-4 -42,-12 -12,-7 -23,-18 -32,-33l0 0c-9,-14 -15,-31 -19,-49 -4,-18 -6,-39 -6,-62 0,-20 1,-43 4,-69 3,-26 7,-54 13,-86l0 0c6,-31 12,-61 20,-89 7,-29 15,-56 24,-81l0 0c9,-26 18,-49 28,-67 9,-19 19,-35 29,-47l0 0c10,-13 21,-22 33,-29zm-162 651c29,13 61,20 98,20 47,0 92,-11 133,-32 41,-22 80,-54 115,-97 35,-44 62,-91 80,-141 18,-51 27,-105 27,-164 0,-44 -5,-84 -16,-120 -11,-35 -27,-66 -48,-93l0 0c-21,-26 -45,-46 -73,-59l0 0c-27,-13 -58,-20 -93,-20 -25,0 -49,3 -72,8 -23,6 -46,14 -68,25 -22,11 -43,25 -62,42 -20,17 -39,36 -57,59l0 0c-17,21 -31,43 -44,66 -13,23 -24,48 -33,75l0 0c-9,26 -16,52 -21,79 -5,26 -7,52 -7,78 0,45 6,85 17,121 11,35 27,67 49,93l0 0c22,26 47,46 76,59zm398 266l-9 42 337 0 8 -42 -16 -1c-13,-1 -24,-1 -32,-3 -10,-2 -17,-4 -22,-7l0 0c-6,-4 -10,-9 -13,-16 -2,-6 -4,-13 -4,-21 0,-3 0,-7 0,-11 0,-4 1,-8 1,-13l0 0c1,-5 1,-10 2,-15 1,-6 2,-11 3,-17l0 0 50 -230 8 -37 15 35c7,16 15,30 24,41 9,11 19,21 30,29l0 0c11,7 23,13 36,17 13,4 28,6 44,6 19,0 38,-3 56,-8 19,-5 38,-13 56,-24 19,-11 37,-24 55,-40l0 0c18,-16 34,-33 50,-54l0 0c17,-22 33,-47 47,-72 14,-26 25,-53 35,-82l0 0c10,-29 17,-58 22,-88 5,-29 7,-59 7,-89 0,-41 -4,-77 -13,-109 -9,-32 -21,-59 -39,-82l0 0c-17,-23 -36,-40 -59,-51 -23,-11 -48,-17 -77,-17 -17,0 -34,2 -49,7 -16,5 -31,11 -45,21 -15,9 -29,21 -43,36 -14,15 -28,32 -42,52l-32 47 10 -56 20 -106 -249 10 -10 49c17,0 31,1 43,2 16,2 28,5 34,9l0 0c7,4 12,11 16,19l0 0c3,8 5,17 5,27 0,3 0,7 0,11 0,4 -1,8 -1,12l0 0c-1,5 -1,9 -2,14l0 0c-1,4 -2,9 -3,14l-161 734 0 0c-2,8 -4,16 -7,22 -3,7 -6,12 -9,16l0 0c-4,4 -9,8 -14,10 -5,2 -11,4 -18,4l0 0 -43 4zm347 -389c-4,-16 -6,-34 -6,-53 0,-18 1,-38 4,-61 3,-22 7,-47 13,-73 6,-27 12,-53 19,-79 7,-25 16,-50 25,-75l0 0c9,-23 18,-43 28,-60 10,-18 21,-33 32,-46l0 0c12,-13 24,-23 36,-30l0 0c13,-7 26,-11 39,-11 14,0 27,3 39,10 11,6 21,16 29,28 8,12 14,26 18,43l0 0c4,16 6,34 6,54 0,19 -1,40 -4,62 -3,22 -7,46 -12,72 -5,25 -11,51 -19,76 -7,25 -16,50 -25,74l0 0c-9,25 -19,46 -29,65 -10,19 -21,35 -31,47l0 0c-11,13 -23,22 -36,29 -13,7 -27,10 -41,10 -14,0 -27,-3 -39,-10 -11,-7 -21,-16 -29,-29 -8,-12 -14,-27 -18,-43zm852 67l-8 53 725 0 73 -364 -35 -10c-24,56 -48,104 -73,143 -27,43 -54,76 -82,100 -28,25 -61,43 -98,55 -37,12 -78,18 -123,18 -16,0 -30,-1 -41,-3l0 0c-12,-2 -22,-5 -28,-9l0 0c-7,-5 -13,-11 -17,-20 -3,-8 -5,-17 -5,-28l0 -1c0,-4 1,-8 1,-13l0 0c0,-5 1,-10 2,-14 1,-5 2,-10 3,-16 1,-6 2,-11 4,-17l157 -747 0 0c3,-13 6,-23 9,-32 3,-10 7,-17 11,-22l0 0c4,-5 10,-10 16,-13 6,-3 13,-5 20,-6l1 0 69 -6 9 -51 -411 0 -9 52 50 5 0 0c8,1 16,2 22,5 7,3 13,6 17,11 9,9 14,22 14,38 0,2 0,5 0,7 0,3 0,5 -1,7 0,2 -1,5 -1,8 0,3 -1,6 -2,9l0 0 -163 781c-3,13 -6,24 -9,33 -3,10 -7,17 -12,22 -4,5 -10,10 -16,13l0 0c-6,3 -13,5 -20,5l0 0 -51 7zm1134 -595c12,-7 25,-10 38,-10 15,0 29,4 42,12l0 0c12,8 23,19 31,33l0 0c8,14 15,31 19,49 4,18 6,39 6,62 0,21 -1,44 -4,70 -3,26 -7,54 -12,85l0 0c-5,31 -12,61 -19,90 -7,29 -15,56 -23,82l0 0c-8,24 -17,46 -26,64 -9,19 -19,34 -29,47l0 0c-11,13 -22,23 -34,30 -13,7 -26,11 -40,11 -15,0 -30,-4 -42,-12 -12,-7 -23,-18 -32,-33l0 0c-9,-14 -15,-31 -19,-49 -4,-18 -6,-39 -6,-62 0,-20 2,-43 4,-69 3,-26 7,-54 13,-86l0 0c6,-31 12,-61 20,-89 7,-29 15,-56 24,-81l0 0c9,-26 18,-49 28,-67 9,-19 19,-35 29,-47l0 0c10,-13 21,-22 33,-29zm-162 651c29,13 61,20 98,20 47,0 92,-11 133,-32 41,-22 80,-54 115,-97 35,-44 62,-91 80,-141 18,-51 27,-105 27,-164 0,-44 -5,-84 -16,-120 -11,-35 -27,-66 -48,-93l0 0c-21,-26 -45,-46 -73,-59l0 0c-27,-13 -58,-20 -93,-20 -25,0 -49,3 -72,8 -23,6 -46,14 -68,25 -22,11 -43,25 -62,42 -20,17 -39,36 -57,59l0 0c-17,21 -31,43 -44,66 -13,23 -24,48 -33,75l0 0c-9,26 -16,52 -21,79 -5,26 -7,52 -7,78 0,45 6,85 17,121 11,35 27,67 49,93l0 0c22,26 47,46 76,59zm1412 -1016c-4,14 -7,29 -7,45 0,16 2,31 6,44 4,14 11,26 19,37l0 0c8,11 17,19 27,24 10,5 20,8 31,8 11,0 21,-3 30,-8 10,-5 19,-14 27,-25 9,-11 15,-24 19,-37 4,-14 6,-28 6,-44 0,-16 -2,-31 -6,-45 -4,-13 -11,-26 -19,-37l0 0c-8,-11 -17,-19 -27,-24 -9,-5 -19,-8 -31,-8 -11,0 -21,3 -31,8l0 0c-10,5 -19,13 -27,24l0 0c-9,11 -15,23 -19,37zm-10 879c1,-3 1,-7 2,-11l128 -546 -270 11 -10 48 43 0c8,0 16,1 22,4 7,3 13,8 18,13l0 0c5,6 8,12 11,20 2,7 3,15 3,24 0,4 0,9 -1,14 0,5 -1,10 -2,16 -1,6 -2,13 -4,21 -2,7 -3,16 -6,27l0 0 -72 287 0 0c-3,13 -6,25 -8,36 -2,11 -4,20 -5,29l0 0c-1,8 -2,16 -3,24 -1,7 -1,15 -1,21 0,20 2,38 7,53 4,15 11,27 20,37l0 0c9,10 19,17 32,22l0 0c13,5 28,8 45,8 20,0 39,-5 58,-14 19,-10 38,-24 57,-44l0 0c19,-20 38,-45 57,-76 18,-29 35,-63 53,-101l-22 -21c-10,20 -19,39 -28,55 -11,21 -22,39 -33,55 -11,16 -21,28 -29,36l0 0c-10,10 -20,15 -29,15 -5,0 -10,-1 -14,-3l0 0c-4,-2 -8,-5 -11,-9 -3,-4 -4,-8 -6,-13 -1,-5 -2,-10 -2,-15 0,-2 0,-4 0,-6l0 0c0,-2 0,-4 1,-6l0 0c0,-3 1,-6 2,-9zm454 -351c-21,-22 -31,-44 -31,-66 0,-16 3,-31 8,-44l0 0c5,-13 13,-25 23,-35l0 0c10,-10 22,-17 36,-22 14,-5 29,-7 46,-7 11,0 21,1 31,3 10,2 19,5 27,9l0 0c9,4 15,9 20,14 6,6 8,13 8,21 0,5 -2,11 -5,19 -3,7 -7,15 -12,24 -5,8 -8,16 -10,24 -2,7 -3,14 -3,21 0,10 2,20 5,29 3,9 8,17 14,24l0 0c12,14 28,21 46,21 11,0 20,-2 28,-6 8,-4 16,-10 23,-18 7,-8 12,-18 15,-29 4,-11 5,-24 5,-38 0,-23 -4,-44 -13,-62 -9,-18 -22,-34 -40,-48 -36,-29 -84,-43 -146,-43 -34,0 -64,5 -91,15 -26,10 -49,25 -69,44 -20,20 -34,43 -44,69 -10,27 -15,57 -15,91 0,24 2,45 7,64 4,19 11,36 20,51 9,15 21,30 38,45 16,15 37,30 61,44l0 0c3,2 8,5 13,7 4,2 10,6 18,10l0 0c30,17 53,36 69,56 16,21 24,43 24,66 0,18 -3,34 -8,48l0 0c-6,14 -14,27 -25,38 -11,11 -24,19 -39,24l0 0c-15,5 -31,8 -50,8 -12,0 -23,-1 -33,-3 -11,-2 -20,-5 -29,-9 -9,-4 -16,-9 -21,-14 -6,-7 -9,-14 -9,-22 0,-4 2,-9 7,-16 3,-5 8,-11 15,-19l0 0c5,-7 10,-15 12,-24 3,-9 4,-19 4,-31 0,-13 -2,-25 -5,-35 -3,-10 -8,-19 -15,-27 -7,-8 -14,-14 -22,-17 -8,-4 -17,-6 -27,-6 -10,0 -20,2 -28,6l0 0c-8,4 -15,11 -22,19 -6,9 -11,20 -15,32 -3,13 -5,27 -5,43 0,24 4,46 13,66 9,19 22,37 40,52 18,15 39,27 62,34 24,8 51,12 81,12 37,0 71,-5 101,-16 30,-10 56,-26 78,-47 22,-21 39,-45 50,-72 11,-27 17,-58 17,-92 0,-23 -2,-45 -7,-64 -5,-19 -12,-37 -21,-52 -10,-16 -23,-31 -40,-46 -17,-15 -38,-30 -63,-44l0 0c-3,-2 -6,-3 -9,-5l-9 -5 0 0c-38,-22 -67,-44 -87,-64zm657 374c18,-29 35,-63 53,-101l-22 -21c-10,21 -20,40 -29,57 -12,21 -22,39 -32,53l0 0c-10,15 -20,26 -29,34 -10,9 -20,14 -29,14 -5,0 -9,-1 -13,-3l0 0c-4,-2 -8,-5 -11,-9 -3,-4 -4,-8 -6,-12l0 0c-1,-4 -2,-9 -2,-14 0,-3 0,-7 1,-12 0,-4 1,-8 2,-13 1,-5 2,-10 3,-16l0 0c2,-7 3,-14 5,-21l0 0 103 -431 2 -9 10 0 122 0 13 -65 -113 0 -16 0 4 -15 64 -260 -147 0 -71 266 -2 9 -9 0 -104 0 -14 65 94 0 16 0 -4 15 -97 393c-3,13 -5,24 -8,35 -2,10 -4,20 -5,28l0 0c-1,8 -2,16 -3,24 -1,7 -1,15 -1,22 0,20 2,38 7,53 4,15 11,27 20,37l0 0c9,10 19,17 31,22 13,5 28,8 45,8 20,0 39,-5 58,-14 19,-10 39,-24 57,-44 19,-20 38,-45 57,-76zm379 -903c-4,14 -7,29 -7,45 0,16 2,31 6,44 4,14 11,26 19,37l0 0c8,11 17,19 27,24 10,5 20,8 31,8 11,0 21,-3 30,-8 10,-5 19,-14 27,-25 9,-11 15,-24 19,-37 4,-14 6,-28 6,-44 0,-16 -2,-31 -6,-45 -4,-13 -11,-26 -19,-37l0 0c-8,-11 -17,-19 -27,-24 -9,-5 -19,-8 -31,-8 -11,0 -21,3 -31,8l0 0c-10,5 -19,13 -27,24l0 0c-9,11 -15,23 -19,37zm-10 879c1,-3 1,-7 2,-11l128 -546 -271 11 -10 48 43 0c8,0 16,1 22,4 7,3 13,8 18,13l0 0c5,6 8,12 11,20 2,7 3,15 3,24 0,4 0,9 -1,14 0,5 -1,10 -2,16 -1,6 -2,13 -4,21 -2,7 -3,16 -6,27l0 0 -72 287 0 0c-3,13 -6,25 -8,36 -2,11 -4,20 -5,29l0 0c-1,8 -2,16 -3,24 -1,7 -1,15 -1,21 0,20 2,38 7,53 4,15 11,27 20,37l0 0c9,10 19,17 32,22l0 0c13,5 28,8 45,8 20,0 39,-5 58,-14 19,-10 38,-24 57,-44l0 0c19,-20 38,-45 57,-76 18,-29 35,-63 53,-101l-22 -21c-10,20 -19,39 -28,55 -11,21 -23,39 -33,55 -11,16 -21,28 -29,36 -10,10 -20,15 -29,15 -5,0 -10,-1 -14,-3 -4,-2 -8,-5 -11,-9 -3,-4 -4,-8 -6,-13 -1,-5 -2,-10 -2,-15 0,-2 0,-4 0,-6l0 0c0,-2 0,-4 1,-6l0 0c0,-3 1,-6 2,-9zm729 -28l-20 -23c-10,17 -21,33 -32,48 -14,19 -30,35 -46,48l0 0c-16,14 -33,24 -49,31 -17,7 -33,11 -49,11 -20,0 -38,-4 -54,-11 -16,-7 -29,-19 -40,-33l0 0c-10,-14 -18,-32 -23,-52 -5,-20 -7,-44 -7,-70 0,-24 2,-49 5,-76 3,-27 8,-55 14,-85l0 0c6,-30 14,-58 22,-85 8,-26 17,-51 27,-73l0 0c9,-21 19,-39 29,-55 10,-16 21,-29 33,-40 12,-11 24,-19 37,-25 13,-6 27,-9 41,-9 8,0 16,1 23,3 7,2 14,6 20,10l0 0c6,5 11,10 14,16 3,6 5,13 5,20 0,7 -3,15 -10,24 -5,8 -13,18 -24,30 -18,20 -27,44 -27,73 0,15 2,27 5,39 4,11 9,21 16,29 7,8 15,14 23,18 9,4 18,6 29,6 14,0 27,-3 38,-9 11,-6 21,-15 30,-26 9,-12 16,-26 21,-42 5,-16 7,-35 7,-55 0,-28 -4,-52 -13,-74 -8,-21 -21,-40 -38,-55 -17,-16 -37,-28 -60,-35 -23,-8 -50,-12 -80,-12 -22,0 -44,3 -66,9 -22,6 -44,15 -66,27l0 0c-22,12 -43,26 -62,43 -19,17 -37,36 -53,57l0 0c-16,21 -30,43 -42,67l0 0c-12,24 -23,50 -32,77 -18,54 -27,109 -27,164 0,43 5,81 16,115 10,34 26,64 47,89l0 0c21,25 44,44 71,57 27,13 57,19 91,19 26,0 51,-4 74,-12 24,-8 47,-20 68,-36 22,-16 42,-36 61,-60 17,-22 34,-48 49,-77zm309 -323c-21,-22 -31,-44 -31,-66 0,-16 3,-31 8,-44l0 0c5,-13 13,-25 23,-35l0 0c10,-10 22,-17 36,-22 14,-5 29,-7 46,-7 11,0 21,1 31,3 10,2 19,5 27,9l0 0c9,4 15,9 20,14 6,6 8,13 8,21 0,5 -2,11 -5,19 -3,7 -7,15 -12,24 -5,8 -8,16 -10,24 -2,7 -3,14 -3,21 0,10 2,20 5,29 3,9 8,17 14,24l0 0c12,14 28,21 46,21 11,0 20,-2 28,-6 8,-4 16,-10 23,-18 7,-8 12,-18 15,-29 4,-11 5,-24 5,-38 0,-23 -4,-44 -13,-62 -9,-18 -22,-34 -40,-48 -36,-29 -84,-43 -146,-43 -34,0 -64,5 -91,15 -26,10 -49,25 -69,44 -20,20 -34,43 -44,69 -10,27 -15,57 -15,91 0,24 2,45 7,64 4,19 11,36 20,51 9,15 21,30 38,45 16,15 37,30 61,44l0 0c3,2 8,5 13,7 4,2 10,6 18,10l0 0c30,17 53,36 69,56 16,21 24,43 24,66 0,18 -3,34 -8,48l0 0c-6,14 -14,27 -25,38 -11,11 -24,19 -39,24l0 0c-15,5 -31,8 -50,8 -12,0 -23,-1 -33,-3 -11,-2 -20,-5 -29,-9 -9,-4 -16,-9 -21,-14 -6,-7 -9,-14 -9,-22 0,-4 2,-9 7,-16 3,-5 8,-11 15,-19l0 0c5,-7 10,-15 12,-24 3,-9 4,-19 4,-31 0,-13 -2,-25 -5,-35 -3,-10 -8,-19 -15,-27 -7,-8 -14,-14 -22,-17 -8,-4 -17,-6 -27,-6 -10,0 -20,2 -28,6l0 0c-8,4 -15,11 -22,19 -6,9 -11,20 -15,32 -3,13 -5,27 -5,43 0,24 4,46 13,66 9,19 22,37 40,52 18,15 39,27 62,34 24,8 51,12 81,12 37,0 71,-5 101,-16 30,-10 56,-26 78,-47 22,-21 39,-45 50,-72 11,-27 17,-58 17,-92 0,-23 -2,-45 -7,-64 -5,-19 -12,-37 -21,-52 -10,-16 -23,-31 -40,-46 -17,-15 -38,-30 -63,-44l0 0c-3,-2 -6,-3 -9,-5l-9 -5 0 0c-38,-22 -67,-44 -87,-64zm-3089 -169c222,-150 76,558 -76,639 -186,98 -118,-222 -91,-324 35,-133 71,-250 167,-315zm-305 945c11,-49 82,-189 -45,-177 -107,10 -89,132 -33,184 130,122 365,1 433,-80 83,-99 244,-758 276,-929 -172,-24 -109,-10 -171,126 1,-55 -37,-106 -58,-139 -223,-43 -390,200 -420,410 -42,295 123,476 329,292 -19,197 -88,341 -311,313z"/>
  <path class="fil0" d="M7302 9144l-13 0c-3475,0 -7160,-1941 -7249,-4282l1951 0c177,2262 2846,4004 5310,4004l0 278z"/>
  <path class="fil1" d="M13952 6475c-822,1444 -3203,2666 -6650,2669l0 -278c2449,0 3906,-948 4763,-2391l-1325 0 2526 -1613 2111 1613 -1426 0z"/>
 </g>
</svg>
