<?xml version="1.0" encoding="UTF-8"?>
<!DOCTYPE svg PUBLIC "-//W3C//DTD SVG 1.1//EN" "http://www.w3.org/Graphics/SVG/1.1/DTD/svg11.dtd">
<!-- Creator: CorelDRAW X5 -->
<svg xmlns="http://www.w3.org/2000/svg" xml:space="preserve" width="68.3956mm" height="20.32mm" style="shape-rendering:geometricPrecision; text-rendering:geometricPrecision; image-rendering:optimizeQuality; fill-rule:evenodd; clip-rule:evenodd"
viewBox="0 0 6840 2032"
 xmlns:xlink="http://www.w3.org/1999/xlink">
 <defs>
  <style type="text/css">
   <![CDATA[
    .fil0 {fill:#0061AE}
    .fil1 {fill:#E62129;fill-rule:nonzero}
   ]]>
  </style>
 </defs>
 <g id="__x0023_Layer_x0020_1">
  <metadata id="CorelCorpID_0Corel-Layer"/>
  <path class="fil0" d="M808 1368c-158,1 -315,1 -473,2 -110,-175 -220,-351 -330,-526 154,0 309,0 463,0 84,127 167,255 251,382 -40,-89 -80,-179 -121,-268 89,-140 179,-280 268,-420 31,-49 72,-84 133,-84 129,0 258,0 387,0 -193,304 -386,609 -579,913zm669 0l0 0c-158,1 -315,1 -473,2 -31,-49 -62,-99 -93,-148l266 -346 212 350c-40,-89 -80,-179 -121,-268 89,-140 252,-397 342,-537 31,-49 72,-84 133,-84 129,0 258,0 387,0 -193,304 -459,727 -652,1031zm-1011 -590l0 0c-155,0 -310,0 -465,0 95,-274 271,-512 600,-656 491,-214 1029,-134 1476,143 -395,-125 -771,-108 -1050,-10 -247,87 -436,257 -562,523zm2212 593l0 0 -343 0 -9 -148 -261 0 -98 148 -348 0 464 -724c40,-61 82,-88 155,-88l402 0 38 812zm-359 -326l0 0 -145 0 119 -199 18 0 8 199zm2433 326l0 0 -343 0 -9 -148 -261 0 -98 148 -348 0 464 -724c40,-61 82,-88 155,-88l402 0 38 812zm-359 -326l0 0 -145 0 119 -199 18 0 8 199zm2433 326l0 0 -343 0 -9 -148 -261 0 -98 148 -348 0 464 -724c39,-61 82,-88 155,-88l402 0 38 812zm-359 -326l0 0 -145 0 119 -199 18 0 8 199zm-3491 -485l0 0 360 0 -78 275 179 0 78 -275 360 0 -229 811 -360 0 79 -279 -179 0 -79 279 -360 0 229 -811zm2083 0l0 0 354 0 -4 16 5 -17 80 381 106 -379 354 0 -228 811 -351 0 -1 3 -1 -3 -1 0 1 -2 -81 -381 -107 382 -354 0 228 -811z"/>
  <path class="fil1" d="M4454 1909l340 0 21 -99 -194 0 12 -56 182 0 21 -99 -182 0 12 -58 190 0 21 -99 -336 0 -87 410zm423 -306l0 0 58 142 -130 164 143 0 68 -99 25 99 148 0 -60 -167 110 -139 -137 0 -58 92 -19 -92 -147 0zm307 429l0 0 140 0 35 -163 1 0c7,16 17,28 30,36 13,7 29,11 47,11 22,0 41,-4 59,-13 17,-8 33,-20 46,-34 13,-14 24,-31 32,-49 9,-19 15,-39 20,-59 5,-22 7,-43 7,-63 0,-20 -4,-37 -11,-53 -7,-15 -17,-27 -32,-36 -14,-9 -33,-13 -56,-13 -23,0 -43,5 -60,14 -17,9 -33,26 -47,49l-1 0 12 -56 -130 0 -92 429zm195 -275l0 0c2,-7 3,-14 6,-22 2,-7 5,-14 9,-20 4,-6 8,-11 14,-15 5,-4 12,-6 19,-6 8,0 14,2 17,6 4,4 6,9 7,15 1,6 1,13 0,21 -1,8 -2,16 -4,24 -2,8 -4,16 -6,24 -2,8 -5,14 -9,20 -4,6 -8,11 -14,14 -5,4 -11,5 -19,5 -8,0 -14,-2 -17,-5 -4,-4 -6,-8 -8,-15 -1,-6 -1,-13 0,-21 1,-8 2,-17 4,-26zm288 -154l0 0 -65 306 140 0 24 -111c2,-11 7,-22 13,-32 6,-10 13,-18 21,-26 8,-7 17,-13 26,-17 10,-4 19,-6 29,-6 6,0 12,0 18,1 6,1 10,2 13,4l26 -123c-6,-2 -13,-3 -22,-3 -11,0 -22,2 -31,6 -10,4 -19,9 -28,16 -9,7 -17,15 -25,24 -8,9 -15,19 -21,30l-1 0 15 -69 -131 0zm360 124l0 0c1,-6 3,-12 5,-19 2,-7 6,-14 10,-20 4,-6 9,-11 15,-15 6,-4 13,-6 21,-6 8,0 14,2 17,6 4,4 6,9 7,15 1,6 1,13 1,20 -1,7 -2,14 -3,19l-73 0zm180 65l0 0 4 -18c6,-26 8,-50 7,-71 -1,-22 -5,-40 -14,-56 -9,-16 -21,-28 -39,-37 -17,-9 -40,-13 -68,-13 -59,0 -106,13 -142,38 -36,26 -59,64 -70,116 -11,53 -5,94 19,123 24,29 66,43 125,43 24,0 48,-1 70,-4 22,-3 44,-7 64,-14l17 -79c-12,6 -27,11 -44,14 -17,3 -35,5 -55,5 -10,0 -20,-1 -29,-2 -9,-1 -16,-4 -23,-7 -6,-4 -11,-8 -14,-14 -3,-6 -4,-14 -2,-23l193 0zm4 107l0 0c19,5 38,10 58,13 20,3 39,5 60,5 17,0 35,-2 54,-5 19,-3 38,-9 56,-18 18,-8 33,-20 47,-34 14,-14 23,-32 27,-54 4,-19 3,-34 -2,-46 -6,-11 -14,-20 -24,-27 -11,-6 -23,-11 -36,-14 -13,-3 -26,-5 -38,-7 -12,-2 -21,-4 -29,-6 -8,-2 -11,-6 -9,-11 1,-5 3,-8 7,-11 3,-3 8,-5 12,-6 5,-2 10,-3 16,-3 6,0 12,-1 18,-1 16,0 31,2 45,5 14,3 28,7 42,13l18 -82c-17,-4 -33,-7 -50,-9 -17,-2 -34,-4 -52,-4 -17,0 -36,1 -56,4 -20,3 -38,8 -56,15 -18,7 -33,18 -46,31 -13,14 -22,31 -27,53 -4,20 -4,35 2,47 5,12 13,21 24,28 11,7 23,12 36,15 13,3 26,6 37,8 12,2 21,5 28,8 7,3 10,8 9,14 -1,4 -3,7 -7,10 -4,3 -8,5 -14,6 -5,2 -11,3 -17,3 -6,1 -12,1 -18,1 -18,0 -36,-2 -53,-7 -17,-5 -32,-12 -43,-20l-19 87zm309 0l0 0c19,5 38,10 58,13 20,3 39,5 60,5 17,0 35,-2 54,-5 19,-3 38,-9 56,-18 18,-8 33,-20 47,-34 14,-14 23,-32 27,-54 4,-19 3,-34 -2,-46 -6,-11 -14,-20 -24,-27 -11,-6 -23,-11 -36,-14 -13,-3 -26,-5 -38,-7 -12,-2 -21,-4 -29,-6 -8,-2 -11,-6 -10,-11 1,-5 3,-8 7,-11 3,-3 8,-5 12,-6 5,-2 10,-3 16,-3 6,0 12,-1 18,-1 16,0 31,2 45,5 14,3 28,7 42,13l18 -82c-17,-4 -33,-7 -50,-9 -17,-2 -34,-4 -52,-4 -17,0 -36,1 -56,4 -20,3 -38,8 -56,15 -18,7 -33,18 -46,31 -13,14 -22,31 -27,53 -4,20 -4,35 2,47 5,12 13,21 24,28 11,7 23,12 36,15 13,3 26,6 37,8 12,2 21,5 28,8 7,3 10,8 9,14 -1,4 -3,7 -7,10 -4,3 -8,5 -14,6 -5,2 -11,3 -17,3 -6,1 -12,1 -18,1 -18,0 -36,-2 -53,-7 -17,-5 -32,-12 -43,-20l-19 87z"/>
 </g>
</svg>
